<?xml version="1.0" encoding="UTF-8"?>
<!DOCTYPE svg PUBLIC "-//W3C//DTD SVG 1.1//EN" "http://www.w3.org/Graphics/SVG/1.1/DTD/svg11.dtd">
<svg xmlns="http://www.w3.org/2000/svg" version="1.1" width="500px" height="500px" style="shape-rendering:geometricPrecision; text-rendering:geometricPrecision; image-rendering:optimizeQuality; fill-rule:evenodd; clip-rule:evenodd" xmlns:xlink="http://www.w3.org/1999/xlink">
<g><path style="opacity:1" fill="#ecde68" d="M 240.5,98.5 C 242.5,99.1667 244.5,99.8333 246.5,100.5C 243.123,100.068 240.123,100.735 237.5,102.5C 235.219,104.428 232.553,105.428 229.5,105.5C 232.622,102.432 236.289,100.098 240.5,98.5 Z"/></g>
<g><path style="opacity:1" fill="#464a4d" d="M 348.5,106.5 C 353.785,107.443 358.952,107.777 364,107.5C 364.804,112.751 364.637,117.918 363.5,123C 358.249,123.804 353.082,123.637 348,122.5C 347.219,117.083 347.385,111.75 348.5,106.5 Z"/></g>
<g><path style="opacity:1" fill="#e8d052" d="M 229.5,105.5 C 225.548,109.474 224.548,114.14 226.5,119.5C 223.417,116.752 222.75,113.418 224.5,109.5C 225.539,107.469 227.205,106.136 229.5,105.5 Z"/></g>
<g><path style="opacity:1" fill="#626160" d="M 253.5,113.5 C 255.717,115.619 257.05,118.286 257.5,121.5C 256.711,123.488 255.545,123.821 254,122.5C 253.502,119.518 253.335,116.518 253.5,113.5 Z"/></g>
<g><path style="opacity:1" fill="#e2d571" d="M 224.5,109.5 C 222.75,113.418 223.417,116.752 226.5,119.5C 228.127,121.63 229.96,123.63 232,125.5C 232.941,128.154 233.774,130.821 234.5,133.5C 231.667,127.884 227.834,122.884 223,118.5C 222.333,115.833 222.333,113.167 223,110.5C 223.383,109.944 223.883,109.611 224.5,109.5 Z"/></g>
<g><path style="opacity:1" fill="#494d50" d="M 308.5,121.5 C 313.762,121.195 318.928,121.529 324,122.5C 324.943,128.012 324.61,133.345 323,138.5C 319.045,137.225 315.045,137.225 311,138.5C 309.775,138.138 308.609,137.638 307.5,137C 308.392,131.714 308.726,126.548 308.5,121.5 Z"/></g>
<g><path style="opacity:1" fill="#4b4e52" d="M 380.5,121.5 C 385.511,121.334 390.511,121.501 395.5,122C 396.471,127.072 396.805,132.238 396.5,137.5C 391.435,137.219 386.435,137.552 381.5,138.5C 380.713,137.758 380.047,136.925 379.5,136C 380.384,131.049 380.717,126.216 380.5,121.5 Z"/></g>
<g><path style="opacity:1" fill="#e6da6b" d="M 234.5,133.5 C 238.538,138.954 239.538,144.954 237.5,151.5C 237.272,145.361 236.272,139.361 234.5,133.5 Z"/></g>
<g><path style="opacity:1" fill="#4c5051" d="M 254.5,126.5 C 256.467,126.261 258.301,126.594 260,127.5C 263.482,134.946 268.315,141.446 274.5,147C 267.695,148.777 260.862,148.943 254,147.5C 253.205,140.42 253.372,133.42 254.5,126.5 Z"/></g>
<g><path style="opacity:1" fill="#464b4d" d="M 368.5,139.5 C 374.148,141.626 379.482,144.46 384.5,148C 380.334,150.917 376.001,153.584 371.5,156C 370.167,156.667 368.833,156.667 367.5,156C 363.47,153.323 359.47,150.656 355.5,148C 359.741,144.907 364.074,142.073 368.5,139.5 Z"/></g>
<g><path style="opacity:1" fill="#484d4e" d="M 383.5,150.5 C 384.995,150.415 385.995,151.081 386.5,152.5C 386.455,157.563 385.955,162.896 385,168.5C 380.459,171.567 375.626,173.9 370.5,175.5C 370.334,169.824 370.501,164.157 371,158.5C 375.441,156.098 379.608,153.431 383.5,150.5 Z"/></g>
<g><path style="opacity:1" fill="#44494b" d="M 274.5,153.5 C 273.81,158.233 273.144,163.066 272.5,168C 273.337,169.011 273.67,170.178 273.5,171.5C 267.158,171.666 260.825,171.5 254.5,171C 255.186,164.835 255.853,158.668 256.5,152.5C 262.425,152.808 268.259,152.475 274,151.5C 274.464,152.094 274.631,152.761 274.5,153.5 Z"/></g>
<g><path style="opacity:1" fill="#f2ce08" d="M 245.5,301.5 C 217.132,342.711 178.132,367.877 128.5,377C 121.544,378.271 114.544,379.104 107.5,379.5C 107.873,382.574 108.539,385.574 109.5,388.5C 106.803,385.071 104.803,381.404 103.5,377.5C 102.987,371.693 104.987,367.026 109.5,363.5C 110.167,363.5 110.833,363.5 111.5,363.5C 117.064,360.868 121.731,357.035 125.5,352C 127.167,351 128.833,350 130.5,349C 134.061,344.614 137.727,340.448 141.5,336.5C 144.919,335.626 148.252,334.46 151.5,333C 152.337,331.989 152.67,330.822 152.5,329.5C 152.5,328.833 152.833,328.5 153.5,328.5C 153.56,329.043 153.893,329.376 154.5,329.5C 158.112,328.187 161.112,326.187 163.5,323.5C 166.226,323.736 168.559,322.903 170.5,321C 174.824,316.835 179.157,312.669 183.5,308.5C 188.107,305.232 192.441,301.565 196.5,297.5C 203.296,291.855 207.963,285.521 210.5,278.5C 212.46,277.862 214.293,277.862 216,278.5C 216.374,277.584 216.874,276.75 217.5,276C 216.426,275.261 215.759,274.261 215.5,273C 218.487,265.863 221.154,258.696 223.5,251.5C 224.256,247.233 225.589,243.233 227.5,239.5C 228.628,236.815 229.962,234.148 231.5,231.5C 231.291,230.914 230.957,230.414 230.5,230C 231.636,221.25 232.469,212.416 233,203.5C 233.852,200.012 235.019,196.678 236.5,193.5C 234.728,192.73 233.728,191.397 233.5,189.5C 234.815,186.87 236.149,184.203 237.5,181.5C 236.898,179.392 236.565,177.225 236.5,175C 236.857,170.77 237.523,166.604 238.5,162.5C 238.81,159.287 238.477,156.287 237.5,153.5C 237.5,152.833 237.5,152.167 237.5,151.5C 239.538,144.954 238.538,138.954 234.5,133.5C 233.774,130.821 232.941,128.154 232,125.5C 229.96,123.63 228.127,121.63 226.5,119.5C 224.548,114.14 225.548,109.474 229.5,105.5C 232.553,105.428 235.219,104.428 237.5,102.5C 240.167,102.167 242.833,101.833 245.5,101.5C 245.5,168.167 245.5,234.833 245.5,301.5 Z"/></g>
<g><path style="opacity:1" fill="#484d50" d="M 278.5,152.5 C 279.873,152.343 281.207,152.51 282.5,153C 288.09,157.045 293.59,161.212 299,165.5C 299.614,167.879 299.947,170.212 300,172.5C 293.248,173.645 286.414,173.811 279.5,173C 278.521,166.256 278.188,159.422 278.5,152.5 Z"/></g>
<g><path style="opacity:1" fill="#e9d86f" d="M 237.5,153.5 C 238.477,156.287 238.81,159.287 238.5,162.5C 237.833,163.167 237.167,163.833 236.5,164.5C 236.942,160.846 237.276,157.179 237.5,153.5 Z"/></g>
<g><path style="opacity:1" fill="#484b4e" d="M 352.5,150.5 C 357.963,152.482 363.129,155.149 368,158.5C 368.499,164.157 368.666,169.824 368.5,175.5C 367.127,175.657 365.793,175.49 364.5,175C 360.752,172.376 356.919,169.876 353,167.5C 352.543,161.538 352.377,155.872 352.5,150.5 Z"/></g>
<g><path style="opacity:1" fill="#e7cd2c" d="M 246.5,100.5 C 246.5,167.5 246.5,234.5 246.5,301.5C 246.167,301.5 245.833,301.5 245.5,301.5C 245.5,234.833 245.5,168.167 245.5,101.5C 242.833,101.833 240.167,102.167 237.5,102.5C 240.123,100.735 243.123,100.068 246.5,100.5 Z"/></g>
<g><path style="opacity:1" fill="#595a5c" d="M 316.5,148.5 C 324.08,149.466 331.747,149.799 339.5,149.5C 339.666,157.174 339.5,164.841 339,172.5C 331.333,173.833 323.667,173.833 316,172.5C 315.2,164.421 315.367,156.421 316.5,148.5 Z"/></g>
<g><path style="opacity:1" fill="#44494b" d="M 316.5,150.5 C 323.833,150.5 331.167,150.5 338.5,150.5C 337.71,157.471 337.377,164.471 337.5,171.5C 330.5,171.5 323.5,171.5 316.5,171.5C 316.5,164.5 316.5,157.5 316.5,150.5 Z"/></g>
<g><path style="opacity:1" fill="#5a5c5d" d="M 256.5,152.5 C 255.853,158.668 255.186,164.835 254.5,171C 260.825,171.5 267.158,171.666 273.5,171.5C 273.67,170.178 273.337,169.011 272.5,168C 273.144,163.066 273.81,158.233 274.5,153.5C 274.5,160.167 274.5,166.833 274.5,173.5C 267.825,173.666 261.158,173.5 254.5,173C 253.521,166.256 253.188,159.422 253.5,152.5C 254.5,152.5 255.5,152.5 256.5,152.5 Z"/></g>
<g><path style="opacity:1" fill="#474c4e" d="M 278.5,176.5 C 285.5,176.5 292.5,176.5 299.5,176.5C 299.458,183.906 299.792,190.739 300.5,197C 293.174,197.5 285.841,197.666 278.5,197.5C 278.5,190.5 278.5,183.5 278.5,176.5 Z"/></g>
<g><path style="opacity:1" fill="#555758" d="M 253.5,181.5 C 255.442,186.056 256.108,191.056 255.5,196.5C 261.5,196.5 267.5,196.5 273.5,196.5C 273.5,190.167 273.5,183.833 273.5,177.5C 270.167,177.5 266.833,177.5 263.5,177.5C 263.649,178.552 263.483,179.552 263,180.5C 261.675,178.662 259.841,177.662 257.5,177.5C 255.249,178.212 253.916,179.212 253.5,180.5C 253.5,179.167 253.5,177.833 253.5,176.5C 260.5,176.5 267.5,176.5 274.5,176.5C 274.666,183.508 274.5,190.508 274,197.5C 267.377,197.575 260.544,197.575 253.5,197.5C 253.5,192.167 253.5,186.833 253.5,181.5 Z"/></g>
<g><path style="opacity:1" fill="#eace21" d="M 238.5,162.5 C 237.523,166.604 236.857,170.77 236.5,175C 236.565,177.225 236.898,179.392 237.5,181.5C 236.149,184.203 234.815,186.87 233.5,189.5C 233.728,191.397 234.728,192.73 236.5,193.5C 235.019,196.678 233.852,200.012 233,203.5C 232.469,212.416 231.636,221.25 230.5,230C 230.957,230.414 231.291,230.914 231.5,231.5C 229.962,234.148 228.628,236.815 227.5,239.5C 227.724,235.821 228.058,232.154 228.5,228.5C 230.215,216.24 230.882,203.906 230.5,191.5C 233.501,182.843 235.501,173.843 236.5,164.5C 237.167,163.833 237.833,163.167 238.5,162.5 Z"/></g>
<g><path style="opacity:1" fill="#464b4f" d="M 303.5,176.5 C 306.365,176.055 308.865,176.722 311,178.5C 314.922,184.345 317.756,190.678 319.5,197.5C 314.208,197.715 309.041,197.715 304,197.5C 303.5,190.508 303.334,183.508 303.5,176.5 Z"/></g>
<g><path style="opacity:1" fill="#e7d96b" d="M 236.5,164.5 C 235.501,173.843 233.501,182.843 230.5,191.5C 230.789,182.019 232.789,173.019 236.5,164.5 Z"/></g>
<g><path style="opacity:1" fill="#474b4d" d="M 363.5,183.5 C 370.09,183.189 376.59,183.522 383,184.5C 383.5,191.492 383.666,198.492 383.5,205.5C 376.578,205.812 369.744,205.479 363,204.5C 362.205,197.42 362.372,190.42 363.5,183.5 Z"/></g>
<g><path style="opacity:1" fill="#43494c" d="M 253.5,181.5 C 253.5,181.167 253.5,180.833 253.5,180.5C 253.916,179.212 255.249,178.212 257.5,177.5C 259.841,177.662 261.675,178.662 263,180.5C 263.483,179.552 263.649,178.552 263.5,177.5C 266.833,177.5 270.167,177.5 273.5,177.5C 273.5,183.833 273.5,190.167 273.5,196.5C 267.5,196.5 261.5,196.5 255.5,196.5C 256.108,191.056 255.442,186.056 253.5,181.5 Z"/></g>
<g><path style="opacity:1" fill="#57595c" d="M 337.5,210.5 C 339.045,211.23 339.878,212.563 340,214.5C 345.682,214.369 351.516,214.369 357.5,214.5C 357.5,208.167 357.5,201.833 357.5,195.5C 351.491,195.334 345.491,195.501 339.5,196C 340.167,196.333 340.833,196.667 341.5,197C 339.862,199.133 339.029,201.633 339,204.5C 338.617,203.944 338.117,203.611 337.5,203.5C 337.216,200.223 337.549,197.057 338.5,194C 345.158,193.5 351.825,193.334 358.5,193.5C 358.5,200.833 358.5,208.167 358.5,215.5C 351.825,215.666 345.158,215.5 338.5,215C 337.62,213.644 337.286,212.144 337.5,210.5 Z"/></g>
<g><path style="opacity:1" fill="#454a4c" d="M 337.5,210.5 C 337.5,208.167 337.5,205.833 337.5,203.5C 338.117,203.611 338.617,203.944 339,204.5C 339.029,201.633 339.862,199.133 341.5,197C 340.833,196.667 340.167,196.333 339.5,196C 345.491,195.501 351.491,195.334 357.5,195.5C 357.5,201.833 357.5,208.167 357.5,214.5C 351.516,214.369 345.682,214.369 340,214.5C 339.878,212.563 339.045,211.23 337.5,210.5 Z"/></g>
<g><path style="opacity:1" fill="#5a5c5f" d="M 297.5,200.5 C 291.926,202.453 285.926,203.12 279.5,202.5C 279.5,208.833 279.5,215.167 279.5,221.5C 285.176,221.666 290.843,221.499 296.5,221C 295.424,219.274 295.257,217.441 296,215.5C 296.249,216.624 296.749,217.624 297.5,218.5C 298.167,213.015 298.833,207.681 299.5,202.5C 299.212,208.584 299.546,214.917 300.5,221.5C 293.197,222.497 285.863,222.831 278.5,222.5C 278.5,215.5 278.5,208.5 278.5,201.5C 284.923,201.791 291.256,201.458 297.5,200.5 Z"/></g>
<g><path style="opacity:1" fill="#44494c" d="M 297.5,200.5 C 298.5,200.833 299.167,201.5 299.5,202.5C 298.833,207.681 298.167,213.015 297.5,218.5C 296.749,217.624 296.249,216.624 296,215.5C 295.257,217.441 295.424,219.274 296.5,221C 290.843,221.499 285.176,221.666 279.5,221.5C 279.5,215.167 279.5,208.833 279.5,202.5C 285.926,203.12 291.926,202.453 297.5,200.5 Z"/></g>
<g><path style="opacity:1" fill="#ded575" d="M 230.5,191.5 C 230.882,203.906 230.215,216.24 228.5,228.5C 228.167,228.5 227.833,228.5 227.5,228.5C 227.838,215.962 228.838,203.629 230.5,191.5 Z"/></g>
<g><path style="opacity:1" fill="#474b4f" d="M 304.5,200.5 C 310.368,201.101 316.201,201.768 322,202.5C 324.128,208.991 324.961,215.658 324.5,222.5C 317.456,222.575 310.623,222.575 304,222.5C 303.204,215.087 303.37,207.754 304.5,200.5 Z"/></g>
<g><path style="opacity:1" fill="#454b4e" d="M 272.5,200.5 C 273.627,201.122 274.627,201.955 275.5,203C 274.522,209.41 274.189,215.91 274.5,222.5C 267.5,222.5 260.5,222.5 253.5,222.5C 253.5,215.5 253.5,208.5 253.5,201.5C 260.022,201.823 266.355,201.49 272.5,200.5 Z"/></g>
<g><path style="opacity:1" fill="#d2c174" d="M 240.5,98.5 C 243.119,98.2317 245.619,98.565 248,99.5C 248.832,190.334 248.666,281.001 247.5,371.5C 247.833,280.998 247.499,190.665 246.5,100.5C 244.5,99.8333 242.5,99.1667 240.5,98.5 Z"/></g>
<g><path style="opacity:1" fill="#45494c" d="M 366.5,234.5 C 366.586,233.504 366.252,232.671 365.5,232C 362.222,230.191 358.889,228.691 355.5,227.5C 358.649,222.394 363.316,219.06 369.5,217.5C 374.107,219.137 378.44,221.304 382.5,224C 383.451,224.718 383.617,225.551 383,226.5C 377.657,230.26 372.157,232.927 366.5,234.5 Z"/></g>
<g><path style="opacity:1" fill="#44494b" d="M 299.5,227.5 C 299.5,229.167 299.5,230.833 299.5,232.5C 298.751,233.531 298.085,234.698 297.5,236C 298.456,239.394 298.789,242.894 298.5,246.5C 292.167,246.5 285.833,246.5 279.5,246.5C 279.5,240.167 279.5,233.833 279.5,227.5C 286.167,227.5 292.833,227.5 299.5,227.5 Z"/></g>
<g><path style="opacity:1" fill="#474c4f" d="M 303.5,226.5 C 310.5,226.5 317.5,226.5 324.5,226.5C 324.5,233.5 324.5,240.5 324.5,247.5C 317.5,247.5 310.5,247.5 303.5,247.5C 303.5,240.5 303.5,233.5 303.5,226.5 Z"/></g>
<g><path style="opacity:1" fill="#464a4c" d="M 328.5,224.5 C 335.677,224.04 342.677,224.54 349.5,226C 349.303,232.859 348.803,239.692 348,246.5C 341.224,245.725 334.557,245.392 328,245.5C 327.324,238.162 327.49,231.162 328.5,224.5 Z"/></g>
<g><path style="opacity:1" fill="#57585a" d="M 253.5,226.5 C 260.5,226.5 267.5,226.5 274.5,226.5C 274.5,233.5 274.5,240.5 274.5,247.5C 267.5,247.5 260.5,247.5 253.5,247.5C 253.5,240.5 253.5,233.5 253.5,226.5 Z"/></g>
<g><path style="opacity:1" fill="#474b4e" d="M 366.5,234.5 C 366.783,235.289 367.283,235.956 368,236.5C 368.499,242.157 368.666,247.824 368.5,253.5C 361.95,251.733 356.617,248.233 352.5,243C 352.802,238.541 352.802,233.874 352.5,229C 353.833,228.333 355.167,228.333 356.5,229C 359.406,231.619 362.739,233.453 366.5,234.5 Z"/></g>
<g><path style="opacity:1" fill="#464a4e" d="M 382.5,228.5 C 384.103,228.312 385.437,228.812 386.5,230C 386.559,234.965 386.393,240.131 386,245.5C 381.401,247.772 377.067,250.439 373,253.5C 372.5,253.333 372,253.167 371.5,253C 370.361,247.584 370.194,242.084 371,236.5C 375.128,234.192 378.961,231.525 382.5,228.5 Z"/></g>
<g><path style="opacity:1" fill="#44494d" d="M 255.5,227.5 C 261.5,227.5 267.5,227.5 273.5,227.5C 273.5,233.833 273.5,240.167 273.5,246.5C 267.771,246.788 262.104,246.454 256.5,245.5C 255.504,239.537 255.171,233.537 255.5,227.5 Z"/></g>
<g><path style="opacity:1" fill="#595d60" d="M 299.5,227.5 C 292.833,227.5 286.167,227.5 279.5,227.5C 279.5,233.833 279.5,240.167 279.5,246.5C 285.833,246.5 292.167,246.5 298.5,246.5C 298.789,242.894 298.456,239.394 297.5,236C 298.085,234.698 298.751,233.531 299.5,232.5C 299.735,237.459 299.735,242.292 299.5,247C 292.919,247.187 286.419,247.687 280,248.5C 278.538,241.342 278.038,234.008 278.5,226.5C 285.687,226.175 292.687,226.509 299.5,227.5 Z"/></g>
<g><path style="opacity:1" fill="#e6d966" d="M 227.5,228.5 C 227.833,228.5 228.167,228.5 228.5,228.5C 228.058,232.154 227.724,235.821 227.5,239.5C 225.589,243.233 224.256,247.233 223.5,251.5C 220.436,257.96 217.103,264.293 213.5,270.5C 216.314,263.532 219.147,256.532 222,249.5C 223.788,242.352 225.622,235.352 227.5,228.5 Z"/></g>
<g><path style="opacity:1" fill="#474c4d" d="M 328.5,251.5 C 335.175,251.334 341.842,251.5 348.5,252C 349.479,258.744 349.812,265.578 349.5,272.5C 342.492,272.666 335.492,272.5 328.5,272C 327.296,264.89 327.296,258.057 328.5,251.5 Z"/></g>
<g><path style="opacity:1" fill="#484c4e" d="M 253.5,251.5 C 260.5,251.5 267.5,251.5 274.5,251.5C 274.5,258.5 274.5,265.5 274.5,272.5C 267.5,272.5 260.5,272.5 253.5,272.5C 253.5,265.5 253.5,258.5 253.5,251.5 Z"/></g>
<g><path style="opacity:1" fill="#7c7d7c" d="M 301.5,254.5 C 302.833,255.167 302.833,255.167 301.5,254.5 Z"/></g>
<g><path style="opacity:1" fill="#494e50" d="M 379.5,256.5 C 385.167,256.5 390.833,256.5 396.5,256.5C 396.5,261.833 396.5,267.167 396.5,272.5C 391.156,272.666 385.823,272.499 380.5,272C 380.661,266.69 380.328,261.524 379.5,256.5 Z"/></g>
<g><path style="opacity:1" fill="#5a5b5d" d="M 280.5,251.5 C 279.54,258.078 279.207,264.745 279.5,271.5C 285.833,271.5 292.167,271.5 298.5,271.5C 298.5,265.167 298.5,258.833 298.5,252.5C 292.642,252.822 286.975,252.489 281.5,251.5C 287.758,251.19 293.924,251.524 300,252.5C 299.171,259.158 299.338,265.825 300.5,272.5C 293.167,272.5 285.833,272.5 278.5,272.5C 277.872,265.087 278.539,258.087 280.5,251.5 Z"/></g>
<g><path style="opacity:1" fill="#44494c" d="M 280.5,251.5 C 280.833,251.5 281.167,251.5 281.5,251.5C 286.975,252.489 292.642,252.822 298.5,252.5C 298.5,258.833 298.5,265.167 298.5,271.5C 292.167,271.5 285.833,271.5 279.5,271.5C 279.207,264.745 279.54,258.078 280.5,251.5 Z"/></g>
<g><path style="opacity:1" fill="#595a5d" d="M 320.5,251.5 C 314.949,253.058 309.615,253.391 304.5,252.5C 304.5,258.833 304.5,265.167 304.5,271.5C 310.833,271.5 317.167,271.5 323.5,271.5C 324.066,264.549 323.399,257.882 321.5,251.5C 323.1,250.488 324.434,250.988 325.5,253C 324.522,259.41 324.189,265.91 324.5,272.5C 317.5,272.5 310.5,272.5 303.5,272.5C 303.334,265.492 303.5,258.492 304,251.5C 309.289,251.405 314.789,251.405 320.5,251.5 Z"/></g>
<g><path style="opacity:1" fill="#43494b" d="M 320.5,251.5 C 320.833,251.5 321.167,251.5 321.5,251.5C 323.399,257.882 324.066,264.549 323.5,271.5C 317.167,271.5 310.833,271.5 304.5,271.5C 304.5,265.167 304.5,258.833 304.5,252.5C 309.615,253.391 314.949,253.058 320.5,251.5 Z"/></g>
<g><path style="opacity:1" fill="#eace27" d="M 223.5,251.5 C 221.154,258.696 218.487,265.863 215.5,273C 215.759,274.261 216.426,275.261 217.5,276C 216.874,276.75 216.374,277.584 216,278.5C 214.293,277.862 212.46,277.862 210.5,278.5C 207.963,285.521 203.296,291.855 196.5,297.5C 196.672,296.508 196.338,295.842 195.5,295.5C 195.5,294.833 195.833,294.5 196.5,294.5C 198.716,293.797 200.549,292.464 202,290.5C 205.155,286.52 207.655,282.186 209.5,277.5C 212.518,276.145 213.851,273.812 213.5,270.5C 217.103,264.293 220.436,257.96 223.5,251.5 Z"/></g>
<g><path style="opacity:1" fill="#dcd063" d="M 213.5,270.5 C 213.851,273.812 212.518,276.145 209.5,277.5C 210.584,274.996 211.917,272.663 213.5,270.5 Z"/></g>
<g><path style="opacity:1" fill="#464b4d" d="M 285.5,275.5 C 289.502,276.165 293.335,276.165 297,275.5C 298.205,276.071 299.372,276.738 300.5,277.5C 299.627,284.068 299.294,290.568 299.5,297C 292.799,297.503 286.132,297.836 279.5,298C 278.52,290.921 278.187,283.755 278.5,276.5C 281.059,276.802 283.393,276.468 285.5,275.5 Z"/></g>
<g><path style="opacity:1" fill="#464b4d" d="M 328.5,276.5 C 335.5,276.5 342.5,276.5 349.5,276.5C 349.5,283.5 349.5,290.5 349.5,297.5C 342.492,297.666 335.492,297.5 328.5,297C 327.296,289.89 327.296,283.057 328.5,276.5 Z"/></g>
<g><path style="opacity:1" fill="#474c4e" d="M 353.5,276.5 C 360.5,276.5 367.5,276.5 374.5,276.5C 374.5,283.5 374.5,290.5 374.5,297.5C 367.5,297.5 360.5,297.5 353.5,297.5C 353.408,290.29 353.408,283.29 353.5,276.5 Z"/></g>
<g><path style="opacity:1" fill="#474c4e" d="M 253.5,276.5 C 260.5,276.5 267.5,276.5 274.5,276.5C 274.189,283.09 274.522,289.59 275.5,296C 274.874,296.75 274.374,297.584 274,298.5C 267.256,297.521 260.422,297.188 253.5,297.5C 253.5,290.5 253.5,283.5 253.5,276.5 Z"/></g>
<g><path style="opacity:1" fill="#464b4e" d="M 304.5,275.5 C 311.248,276.349 317.914,276.682 324.5,276.5C 324.5,283.5 324.5,290.5 324.5,297.5C 317.456,297.575 310.623,297.575 304,297.5C 303.204,290.087 303.37,282.754 304.5,275.5 Z"/></g>
<g><path style="opacity:1" fill="#e2d363" d="M 209.5,277.5 C 207.655,282.186 205.155,286.52 202,290.5C 200.549,292.464 198.716,293.797 196.5,294.5C 201.087,288.975 205.421,283.308 209.5,277.5 Z"/></g>
<g><path style="opacity:1" fill="#e2d55f" d="M 195.5,295.5 C 196.338,295.842 196.672,296.508 196.5,297.5C 192.441,301.565 188.107,305.232 183.5,308.5C 187.5,304.167 191.5,299.833 195.5,295.5 Z"/></g>
<g><path style="opacity:1" fill="#474b4d" d="M 272.5,300.5 C 274.463,307.424 275.13,314.757 274.5,322.5C 267.5,322.5 260.5,322.5 253.5,322.5C 253.5,315.5 253.5,308.5 253.5,301.5C 260.022,301.823 266.355,301.49 272.5,300.5 Z"/></g>
<g><path style="opacity:1" fill="#474b4d" d="M 287.5,300.5 C 291.652,300.734 295.986,301.401 300.5,302.5C 299.183,308.697 299.183,314.864 300.5,321C 298.781,322.057 296.947,322.89 295,323.5C 289.593,322.527 284.093,322.193 278.5,322.5C 278.5,315.5 278.5,308.5 278.5,301.5C 281.713,301.81 284.713,301.477 287.5,300.5 Z"/></g>
<g><path style="opacity:1" fill="#464b4d" d="M 304.5,300.5 C 311.122,301.456 317.622,301.79 324,301.5C 324.5,308.492 324.666,315.492 324.5,322.5C 317.5,322.5 310.5,322.5 303.5,322.5C 303.203,315.08 303.536,307.746 304.5,300.5 Z"/></g>
<g><path style="opacity:1" fill="#ebb902" d="M 245.5,301.5 C 244.332,323.868 244.332,346.201 245.5,368.5C 244.675,369.386 243.675,369.719 242.5,369.5C 242.5,368.5 242.5,367.5 242.5,366.5C 239.412,369.008 235.745,370.508 231.5,371C 230.007,372.156 230.174,372.99 232,373.5C 233.473,373.097 234.806,372.43 236,371.5C 238.096,372.715 237.929,373.549 235.5,374C 236.167,374.333 236.833,374.667 237.5,375C 232.818,376.536 228.818,379.036 225.5,382.5C 220.766,385.196 216.099,387.862 211.5,390.5C 199.547,393.154 187.547,395.82 175.5,398.5C 159.378,399.06 143.378,398.06 127.5,395.5C 126.77,393.955 125.437,393.122 123.5,393C 119.848,392.501 116.182,392.335 112.5,392.5C 112.167,392.5 111.833,392.5 111.5,392.5C 110.4,391.395 109.733,390.062 109.5,388.5C 108.539,385.574 107.873,382.574 107.5,379.5C 114.544,379.104 121.544,378.271 128.5,377C 178.132,367.877 217.132,342.711 245.5,301.5 Z"/></g>
<g><path style="opacity:1" fill="#e3d055" d="M 183.5,308.5 C 179.157,312.669 174.824,316.835 170.5,321C 168.559,322.903 166.226,323.736 163.5,323.5C 170.158,318.503 176.825,313.503 183.5,308.5 Z"/></g>
<g><path style="opacity:1" fill="#e0d463" d="M 163.5,323.5 C 161.112,326.187 158.112,328.187 154.5,329.5C 153.893,329.376 153.56,329.043 153.5,328.5C 156.85,326.804 160.183,325.137 163.5,323.5 Z"/></g>
<g><path style="opacity:1" fill="#484b4f" d="M 333.5,332.5 C 333.158,331.662 332.492,331.328 331.5,331.5C 330.316,330.312 330.316,329.145 331.5,328C 335.833,325.5 340.167,323 344.5,320.5C 349.5,323.333 354.5,326.167 359.5,329C 354.838,332.666 349.838,335.833 344.5,338.5C 340.935,336.219 337.268,334.219 333.5,332.5 Z"/></g>
<g><path style="opacity:1" fill="#565758" d="M 273.5,346.5 C 273.5,340.167 273.5,333.833 273.5,327.5C 267.5,327.5 261.5,327.5 255.5,327.5C 255.5,333.833 255.5,340.167 255.5,346.5C 254.18,343.572 253.514,340.239 253.5,336.5C 253.667,333.167 253.833,329.833 254,326.5C 260.744,325.521 267.578,325.188 274.5,325.5C 274.188,332.422 274.521,339.256 275.5,346C 274.906,346.464 274.239,346.631 273.5,346.5 Z"/></g>
<g><path style="opacity:1" fill="#4a4d50" d="M 279.5,325.5 C 284.5,325.5 289.5,325.5 294.5,325.5C 294.046,328.14 292.879,330.473 291,332.5C 287.686,336.981 283.852,340.981 279.5,344.5C 278.21,338.112 278.21,331.778 279.5,325.5 Z"/></g>
<g><path style="opacity:1" fill="#464b4d" d="M 303.5,325.5 C 310.175,325.334 316.842,325.5 323.5,326C 324.479,332.744 324.812,339.578 324.5,346.5C 317.774,346.456 311.107,346.623 304.5,347C 303.52,339.921 303.187,332.755 303.5,325.5 Z"/></g>
<g><path style="opacity:1" fill="#44494b" d="M 273.5,346.5 C 267.809,346.576 261.809,346.576 255.5,346.5C 255.5,340.167 255.5,333.833 255.5,327.5C 261.5,327.5 267.5,327.5 273.5,327.5C 273.5,333.833 273.5,340.167 273.5,346.5 Z"/></g>
<g><path style="opacity:1" fill="#e7d153" d="M 152.5,329.5 C 152.67,330.822 152.337,331.989 151.5,333C 148.252,334.46 144.919,335.626 141.5,336.5C 144.961,333.931 148.628,331.597 152.5,329.5 Z"/></g>
<g><path style="opacity:1" fill="#44474c" d="M 359.5,331.5 C 360.117,331.611 360.617,331.944 361,332.5C 361.667,338.167 361.667,343.833 361,349.5C 356.37,351.968 351.87,354.634 347.5,357.5C 346.914,357.291 346.414,356.957 346,356.5C 345.333,351.167 345.333,345.833 346,340.5C 350.544,337.4 355.044,334.4 359.5,331.5 Z"/></g>
<g><path style="opacity:1" fill="#474b4e" d="M 331.5,331.5 C 331.409,333.698 332.075,334.031 333.5,332.5C 333.414,333.496 333.748,334.329 334.5,335C 337.584,336.469 340.417,338.302 343,340.5C 343.83,346.196 343.663,351.863 342.5,357.5C 337.162,354.833 332.162,351.666 327.5,348C 327.79,343.224 327.957,338.057 328,332.5C 329.145,332.381 330.312,332.048 331.5,331.5 Z"/></g>
<g><path style="opacity:1" fill="#e9d05a" d="M 246.5,100.5 C 247.499,190.665 247.833,280.998 247.5,371.5C 243.701,374.952 239.368,377.618 234.5,379.5C 237.839,376.009 241.672,373.009 246,370.5C 246.5,347.502 246.667,324.502 246.5,301.5C 246.5,234.5 246.5,167.5 246.5,100.5 Z"/></g>
<g><path style="opacity:1" fill="#484c4e" d="M 263.5,350.5 C 266.456,351.137 269.456,351.637 272.5,352C 266.958,357.211 261.125,362.044 255,366.5C 253.558,361.691 253.058,356.691 253.5,351.5C 257.042,351.813 260.375,351.479 263.5,350.5 Z"/></g>
<g><path style="opacity:1" fill="#e7cf35" d="M 141.5,336.5 C 137.727,340.448 134.061,344.614 130.5,349C 128.833,350 127.167,351 125.5,352C 121.731,357.035 117.064,360.868 111.5,363.5C 117.531,358.469 122.865,352.803 127.5,346.5C 131.454,342.188 136.12,338.855 141.5,336.5 Z"/></g>
<g><path style="opacity:1" fill="#474c4f" d="M 279.5,350.5 C 285.883,351.429 292.216,351.763 298.5,351.5C 299.184,358.055 299.851,364.555 300.5,371C 300.167,371.333 299.833,371.667 299.5,372C 292.586,372.811 285.752,372.645 279,371.5C 278.205,364.42 278.372,357.42 279.5,350.5 Z"/></g>
<g><path style="opacity:1" fill="#e3d86e" d="M 127.5,346.5 C 122.865,352.803 117.531,358.469 111.5,363.5C 110.833,363.5 110.167,363.5 109.5,363.5C 115.474,357.861 121.474,352.195 127.5,346.5 Z"/></g>
<g><path style="opacity:1" fill="#e5b915" d="M 245.5,301.5 C 245.833,301.5 246.167,301.5 246.5,301.5C 246.667,324.502 246.5,347.502 246,370.5C 241.672,373.009 237.839,376.009 234.5,379.5C 231.318,380.03 228.318,381.03 225.5,382.5C 228.818,379.036 232.818,376.536 237.5,375C 236.833,374.667 236.167,374.333 235.5,374C 237.929,373.549 238.096,372.715 236,371.5C 234.806,372.43 233.473,373.097 232,373.5C 230.174,372.99 230.007,372.156 231.5,371C 235.745,370.508 239.412,369.008 242.5,366.5C 242.5,367.5 242.5,368.5 242.5,369.5C 243.675,369.719 244.675,369.386 245.5,368.5C 244.332,346.201 244.332,323.868 245.5,301.5 Z"/></g>
<g><path style="opacity:1" fill="#dbd474" d="M 109.5,363.5 C 104.987,367.026 102.987,371.693 103.5,377.5C 101.074,371.013 103.074,366.346 109.5,363.5 Z"/></g>
<g><path style="opacity:1" fill="#d8c96e" d="M 103.5,377.5 C 104.803,381.404 106.803,385.071 109.5,388.5C 109.733,390.062 110.4,391.395 111.5,392.5C 109.629,392.141 108.129,391.141 107,389.5C 105.265,385.655 104.099,381.655 103.5,377.5 Z"/></g>
<g><path style="opacity:1" fill="#ecb500" d="M 174.5,366.5 C 175.919,365.549 177.585,365.216 179.5,365.5C 178.599,369.241 179.932,371.241 183.5,371.5C 183.5,370.167 183.5,368.833 183.5,367.5C 186.833,367.5 190.167,367.5 193.5,367.5C 194.007,372.526 194.674,377.526 195.5,382.5C 199.054,382.15 202.388,382.816 205.5,384.5C 206.086,384.291 206.586,383.957 207,383.5C 207.684,384.784 207.517,385.951 206.5,387C 207.167,387.333 207.833,387.667 208.5,388C 206.705,389.488 204.705,390.154 202.5,390C 204.394,388.899 205.061,387.566 204.5,386C 199.983,385.639 195.816,385.139 192,384.5C 192.456,381.572 192.456,378.572 192,375.5C 186.849,378.115 181.682,378.115 176.5,375.5C 175.571,376.689 175.238,378.022 175.5,379.5C 178.448,379.777 181.281,379.444 184,378.5C 185.509,379.09 187.009,379.756 188.5,380.5C 185.635,382.471 182.635,383.137 179.5,382.5C 180.729,383.281 182.062,383.781 183.5,384C 181.715,385.163 179.715,385.83 177.5,386C 175.559,387.816 174.892,389.816 175.5,392C 173.557,391.695 171.557,391.695 169.5,392C 170.328,392.915 171.328,393.581 172.5,394C 170.287,394.626 168.12,394.459 166,393.5C 162.018,394.834 158.018,396.167 154,397.5C 153,396.833 152,396.167 151,395.5C 149.817,396.731 148.651,396.731 147.5,395.5C 151.467,394.528 155.467,393.695 159.5,393C 157.221,392.527 155.221,391.527 153.5,390C 148.624,390.418 143.791,390.585 139,390.5C 137.739,390.241 136.739,389.574 136,388.5C 131.401,389.552 126.567,389.052 121.5,387C 123.974,385.733 126.641,384.899 129.5,384.5C 133.136,385.512 136.969,385.845 141,385.5C 144.347,383.786 147.847,383.286 151.5,384C 151,384.5 150.5,385 150,385.5C 148.374,385.146 146.541,385.146 144.5,385.5C 144.5,386.5 144.5,387.5 144.5,388.5C 149.054,388.745 153.554,388.412 158,387.5C 159.882,388.093 160.882,389.427 161,391.5C 162.13,390.886 163.463,390.886 165,391.5C 165.833,391.167 166.667,390.833 167.5,390.5C 166.335,389.416 165.002,388.583 163.5,388C 166.167,387.333 168.833,386.667 171.5,386C 170.322,385.033 168.989,384.533 167.5,384.5C 168.025,383.808 168.692,383.308 169.5,383C 168.229,380.671 166.229,379.505 163.5,379.5C 158.286,381.137 152.953,382.137 147.5,382.5C 145.68,382.351 144.18,381.684 143,380.5C 139.27,381.46 135.437,381.793 131.5,381.5C 131.5,380.167 131.5,378.833 131.5,377.5C 139.956,376.537 148.622,375.37 157.5,374C 158.659,372.173 159.992,370.507 161.5,369C 165.202,368.9 168.702,368.067 172,366.5C 173.789,367.409 175.623,367.576 177.5,367C 176.552,366.517 175.552,366.351 174.5,366.5 Z"/></g>
<g><path style="opacity:1" fill="#dac969" d="M 234.5,379.5 C 227.573,384.461 219.906,388.128 211.5,390.5C 216.099,387.862 220.766,385.196 225.5,382.5C 228.318,381.03 231.318,380.03 234.5,379.5 Z"/></g>
<g><path style="opacity:1" fill="#d8c151" d="M 112.5,392.5 C 116.182,392.335 119.848,392.501 123.5,393C 125.437,393.122 126.77,393.955 127.5,395.5C 122.273,395.022 117.273,394.022 112.5,392.5 Z"/></g>
<g><path style="opacity:1" fill="#d3bd58" d="M 211.5,390.5 C 200.713,395.2 189.38,398.367 177.5,400C 167.506,400.5 157.506,400.666 147.5,400.5C 156.833,399.833 166.167,399.167 175.5,398.5C 187.547,395.82 199.547,393.154 211.5,390.5 Z"/></g>
<g><path style="opacity:1" fill="#debf45" d="M 127.5,395.5 C 143.378,398.06 159.378,399.06 175.5,398.5C 166.167,399.167 156.833,399.833 147.5,400.5C 140.589,399.466 133.922,397.799 127.5,395.5 Z"/></g>
</svg>
